<svg xmlns="http://www.w3.org/2000/svg" width="512" height="512" viewBox="0 0 510 510"><path d="M459 0H51C23 0 0 23 0 51v408c0 28.1 23 51 51 51h408c28.1 0 51-22.9 51-51V51C510 23 487.1 0 459 0zM400.4 186.2c-2.5 117.3-76.5 198.9-188.7 204C165.8 392.7 132.6 377.4 102 359.6c33.2 5.1 76.5-7.6 99.5-28 -33.1-2.5-53.5-20.4-63.7-48.4 10.2 2.6 20.4 0 28.1 0 -30.6-10.2-51-28-53.5-68.8 7.7 5.1 17.9 7.7 28.1 7.7 -22.9-12.7-38.2-61.2-20.4-91.8 33.2 35.7 74 66.3 140.3 71.4 -17.8-71.4 79.1-109.6 117.3-61.2 17.9-2.5 30.6-10.2 43.4-15.3 -5.1 17.9-15.3 28.1-28 38.3 12.8-2.5 25.5-5.1 35.7-10.2C425.9 165.8 413.1 176 400.4 186.2z" fill="#FFF"/></svg>
